<?xml version="1.0" encoding="UTF-8"?>
<svg version="1.1" xmlns="http://www.w3.org/2000/svg" width="483" height="404">
<path d="M0 0 C0.66 0.33 1.32 0.66 2 1 C4.42964537 1.084592 6.82970717 1.10813577 9.25900269 1.08660889 C10.39430221 1.08259878 10.39430221 1.08259878 11.55253708 1.07850766 C14.10261439 1.06840344 16.65259691 1.05120335 19.20263672 1.03417969 C21.02580037 1.02571638 22.84896645 1.01776339 24.6721344 1.01028442 C28.60687667 0.99353195 32.54159375 0.97409647 36.47631454 0.95290375 C42.70506559 0.92033484 48.93381983 0.89959652 55.16262817 0.88165283 C56.21364586 0.87856637 57.26466354 0.8754799 58.34753025 0.87229991 C60.49735127 0.86599134 62.64717236 0.8597016 64.79699349 0.85343027 C79.30127926 0.81043375 93.80544361 0.7588172 108.30957031 0.67773438 C118.08740855 0.62316448 127.86513691 0.58652818 137.64311612 0.57022786 C142.81583384 0.5608728 147.98815686 0.54240025 153.16073227 0.50191498 C158.03467848 0.46388266 162.90813661 0.44952271 167.78222466 0.45275497 C169.56393582 0.44980021 171.34565799 0.43835187 173.12724876 0.41743088 C186.83651495 0.26369729 198.59001998 2.17485032 209 12 C214.81856398 18.02587624 219.69008913 26.49027435 220.09472656 34.98974609 C219.78484979 46.41984983 216.18200679 56.81799321 208 65 C199.22929857 72.29093458 191.35577211 74.24200622 180.1328125 74.4140625 C179.33140839 74.43342865 178.53000427 74.4527948 177.70431519 74.4727478 C175.17798034 74.53183813 172.65159646 74.57860496 170.125 74.625 C168.40883592 74.66325224 166.69268954 74.70230798 164.9765625 74.7421875 C157.37881399 74.91419411 149.78937551 75.00253402 142.18945312 74.98413086 C135.17207015 74.9677501 128.15468792 74.95653974 121.13729095 74.94818783 C116.89018221 74.94295797 112.64309338 74.93585304 108.39599609 74.92456055 C104.28824162 74.9137095 100.18050635 74.90771898 96.07273865 74.90512276 C94.50662431 74.90327388 92.94051104 74.89966353 91.37440491 74.89426994 C89.18642889 74.88702918 86.99853292 74.8860103 84.81054688 74.88647461 C83.56494995 74.884254 82.31935303 74.88203339 81.03601074 74.87974548 C77.95377854 74.86072233 77.95377854 74.86072233 75 76 C74.67 75.67 74.34 75.34 74 75 C71.41289167 74.92352621 68.85223913 74.9093824 66.265625 74.9375 C65.47661804 74.94128662 64.68761108 74.94507324 63.87469482 74.94897461 C60.49436015 74.96527941 57.11414581 74.9929567 53.73388672 75.02050781 C25.78262015 75.22897653 25.78262015 75.22897653 14 71 C14 70.34 14 69.68 14 69 C13.278125 68.773125 12.55625 68.54625 11.8125 68.3125 C8.39138694 66.71598057 6.53606327 64.78966959 4 62 C3.13375 61.071875 2.2675 60.14375 1.375 59.1875 C-4.5319126 51.25980151 -5.15798961 42.4929451 -5.09765625 32.8828125 C-5.0962413 32.02565643 -5.09482635 31.16850037 -5.09336853 30.28536987 C-5.08780022 27.5652101 -5.07525364 24.84513462 -5.0625 22.125 C-5.0574809 20.27343869 -5.05291871 18.42187609 -5.04882812 16.5703125 C-5.03784117 12.04684285 -5.02059852 7.52343568 -5 3 C-3.35 2.67 -1.7 2.34 0 2 C0 1.34 0 0.68 0 0 Z " fill="#50408A" transform="translate(46,185)"/>
<path d="M0 0 C1.41055989 -0.00271574 2.82111836 -0.00627992 4.23167419 -0.01062012 C8.03552132 -0.01967884 11.83925903 -0.01622653 15.64310789 -0.00986195 C19.64265944 -0.00476599 23.64220219 -0.00950351 27.64175415 -0.01263428 C34.35802882 -0.01626435 41.07425938 -0.01150096 47.79052734 -0.00195312 C55.52833643 0.0089207 63.26604001 0.00540977 71.00384653 -0.00560594 C77.67340407 -0.01471685 84.34293006 -0.01594531 91.01249182 -0.0107286 C94.98438278 -0.00762859 98.95622435 -0.00714469 102.92811203 -0.01380157 C106.66614466 -0.01962973 110.40404294 -0.01547945 114.14206123 -0.00401306 C116.14829963 -0.0001579 118.15454954 -0.00600582 120.16078186 -0.01226807 C135.4345375 0.05821622 149.70946976 2.21855345 161.24462891 13.07128906 C171.36987995 24.42974376 175.44636782 38.12637241 174.88525391 53.19628906 C174.83884766 53.87691406 174.79244141 54.55753906 174.74462891 55.25878906 C175.96085937 55.22398438 175.96085937 55.22398438 177.20166016 55.18847656 C192.2172358 54.9437524 205.51092924 57.58903014 216.74462891 68.25878906 C228.02596024 81.17240094 229.91273883 93.8849013 229.84228516 110.41113281 C229.84016273 112.2940377 229.84016273 112.2940377 229.83799744 114.21498108 C229.83336467 117.53084257 229.8244003 120.84663358 229.81329346 124.16247559 C229.80301182 127.55459997 229.79848543 130.94673167 229.79345703 134.33886719 C229.78245462 140.97886042 229.76573643 147.61882068 229.74462891 154.25878906 C224.56780142 154.52587937 219.39096459 154.75885861 214.21118164 154.96069336 C212.45035247 155.03406799 210.68988188 155.11666218 208.92993164 155.20874023 C206.39589346 155.33970013 203.862404 155.43715705 201.32666016 155.52832031 C200.15137505 155.59984062 200.15137505 155.59984062 198.9523468 155.67280579 C194.86271131 155.78547888 193.05646113 155.50894763 189.8215332 152.91381836 C187.74462891 150.25878906 187.74462891 150.25878906 185.93212891 147.50878906 C182.31534979 142.13528866 178.16074921 136.86953593 172.74462891 133.25878906 C172.74462891 132.59878906 172.74462891 131.93878906 172.74462891 131.25878906 C172.00212891 130.99066406 171.25962891 130.72253906 170.49462891 130.44628906 C167.87826336 129.31649485 165.94275779 128.04985705 163.74462891 126.25878906 C164.34890939 122.1705705 165.72224654 119.13145672 167.68212891 115.50878906 C174.20311711 102.59191555 174.92364541 86.91115927 170.77587891 72.98925781 C165.17142897 58.15020287 154.6817902 46.93824044 140.43212891 40.00878906 C128.89881558 35.43724903 117.54963393 34.83627901 105.32788086 34.93408203 C103.61494586 34.93657089 101.90200846 34.93771227 100.18907166 34.93762207 C95.57817656 34.94100587 90.96753101 34.96266929 86.35670877 34.98753881 C81.52104414 35.01015016 76.68536366 35.01472566 71.84965515 35.02102661 C62.7080117 35.03546252 53.56647954 35.06435692 44.42489356 35.0992738 C28.02192138 35.1614416 11.61888119 35.19875172 -4.78417426 35.23086655 C-10.53983591 35.24271087 -16.2954335 35.26090676 -22.05105913 35.28438163 C-25.61840601 35.29817069 -29.18575661 35.30804154 -32.75311852 35.3170166 C-34.41161735 35.32210044 -36.07011183 35.32893767 -37.72859573 35.33761978 C-39.98461982 35.3492448 -42.24057935 35.35480578 -44.49662781 35.3588562 C-45.76103541 35.36367445 -47.02544302 35.3684927 -48.32816601 35.37345695 C-51.25537109 35.25878906 -51.25537109 35.25878906 -53.25537109 34.25878906 C-53.06514766 25.69873442 -47.71219366 18.7443596 -42.19287109 12.50878906 C-30.37744964 1.46509558 -15.38771975 -0.04788172 0 0 Z " fill="#22BFD5" transform="translate(97.25537109375,38.7412109375)"/>
<path d="M0 0 C0.7270202 -0.00367669 1.45404039 -0.00735338 2.2030915 -0.01114148 C4.65191139 -0.02220014 7.10068888 -0.02602588 9.54953003 -0.02983093 C11.30037064 -0.03609406 13.05120992 -0.04274073 14.80204773 -0.04974365 C19.56883872 -0.06717024 24.33561967 -0.07771048 29.10243464 -0.08594918 C32.08049729 -0.09109708 35.05855683 -0.09717299 38.03661728 -0.10346031 C47.35380711 -0.12251921 56.670989 -0.13674742 65.98819458 -0.14507228 C76.7436239 -0.15484056 87.49884719 -0.18114649 98.25420392 -0.22157317 C106.56597955 -0.25174258 114.87769616 -0.26654204 123.18952549 -0.26985329 C128.15411375 -0.27220333 133.1184821 -0.28115743 138.08301163 -0.30631447 C142.75666776 -0.32961381 147.42995949 -0.33382091 152.10365868 -0.32355309 C153.81607336 -0.32305803 155.52850608 -0.32936965 157.24086571 -0.34310913 C169.06481274 -0.43264667 177.09484798 0.42702143 186.01779175 9.14717102 C191.32009565 16.66865003 191.91988379 24.13661945 191.01779175 33.14717102 C188.9425266 39.96855825 185.12004959 45.39463315 179.01779175 49.14717102 C173.8849993 51.6822286 170.20331239 52.52019317 164.38047791 52.50793457 C163.64354106 52.51049784 162.90660421 52.51306112 162.14733595 52.51570207 C159.6951542 52.52061613 157.24359774 52.50418703 154.79147339 52.48774719 C153.02691665 52.4869004 151.26235886 52.48737708 149.49780273 52.48907471 C144.71935092 52.48993406 139.94112585 52.47231794 135.16272664 52.45135283 C130.16459257 52.4325761 125.16645308 52.4308348 120.16828918 52.42727661 C110.70886741 52.41795909 101.24954986 52.39334922 91.79017395 52.36322814 C81.01876813 52.32967507 70.24735729 52.31319583 59.47591221 52.29814184 C37.32314725 52.26679944 15.17047607 52.21404458 -6.98220825 52.14717102 C-8.64652544 49.00697192 -9.22847387 46.9525753 -9.20925903 43.37861633 C-9.20910797 42.43794312 -9.20895691 41.4972699 -9.20880127 40.52809143 C-9.1984787 39.52066895 -9.18815613 38.51324646 -9.17752075 37.47529602 C-9.17469086 36.4377417 -9.17186096 35.40018738 -9.16894531 34.33119202 C-9.1577569 31.01973401 -9.13265452 27.70854718 -9.10720825 24.39717102 C-9.09717673 22.15108118 -9.08805118 19.90498709 -9.0798645 17.65888977 C-9.05782195 12.15489111 -9.02435757 6.65105044 -8.98220825 1.14717102 C-6.00740205 -0.34023208 -3.32038192 0.01085019 0 0 Z " fill="#3688B5" transform="translate(49.982208251953125,103.85282897949219)"/>
<path d="M0 0 C17.82 0 35.64 0 54 0 C52.875 13.5 52.875 13.5 51.80859375 19.296875 C51.60806396 20.40385742 51.40753418 21.51083984 51.20092773 22.65136719 C50.94899658 24.00391602 50.69706543 25.35646484 50.4375 26.75 C49.633125 31.1225 48.82875 35.495 48 40 C67.8 40.495 67.8 40.495 88 41 C86.87361791 53.39020294 86.87361791 53.39020294 85.84375 58.7265625 C85.62589844 59.85964844 85.40804687 60.99273437 85.18359375 62.16015625 C84.84521484 63.87525391 84.84521484 63.87525391 84.5 65.625 C84.27441406 66.80707031 84.04882812 67.98914063 83.81640625 69.20703125 C82.13206473 77.86793527 82.13206473 77.86793527 81 79 C78.04470496 79.16029688 75.11017543 79.25957328 72.15234375 79.31640625 C71.2659169 79.33718735 70.37949005 79.35796844 69.46620178 79.37937927 C66.623383 79.444974 63.78046883 79.50380552 60.9375 79.5625 C59.01496394 79.6056758 57.09243766 79.64928978 55.16992188 79.69335938 C50.44671332 79.80066543 45.72340847 79.90190451 41 80 C40.79318604 81.10512939 40.58637207 82.21025879 40.37329102 83.34887695 C39.60571561 87.44742081 38.83538059 91.54544195 38.06420898 95.64331055 C37.73077251 97.4172575 37.39808546 99.19134548 37.06616211 100.96557617 C36.58904637 103.51518569 36.1092414 106.06427655 35.62890625 108.61328125 C35.48095108 109.40712723 35.33299591 110.20097321 35.18055725 111.01887512 C34.59948673 114.09096407 33.99004171 117.02987486 33 120 C15.18 120 -2.64 120 -21 120 C-18.75 104.25 -18.75 104.25 -17.7109375 98.7265625 C-17.51290527 97.66518066 -17.31487305 96.60379883 -17.11083984 95.51025391 C-16.8680127 94.22812012 -16.62518555 92.94598633 -16.375 91.625 C-15.59125 87.45875 -14.8075 83.2925 -14 79 C-27.53 79 -41.06 79 -55 79 C-54.38881518 73.4993366 -53.75713303 68.20104271 -52.80859375 62.77734375 C-52.58623047 61.49794922 -52.36386719 60.21855469 -52.13476562 58.90039062 C-51.90240387 57.57941651 -51.66998127 56.25845309 -51.4375 54.9375 C-51.20092045 53.58142405 -50.96459042 52.22530454 -50.72851562 50.86914062 C-50.15478858 47.57899167 -49.5785527 44.28930321 -49 41 C-40.11354246 39.95315988 -31.31187721 39.90983693 -22.375 40 C-19.67443905 40.02654425 -16.97411099 40.04644049 -14.2734375 40.0625 C-13.09185059 40.07410156 -11.91026367 40.08570313 -10.69287109 40.09765625 C-8.08201909 40.30902445 -8.08201909 40.30902445 -7 39 C-6.4118179 36.12670099 -5.87503406 33.25947109 -5.37109375 30.37109375 C-5.23449341 29.60543091 -5.09789307 28.83976807 -4.95715332 28.05090332 C-4.44626424 25.1805376 -3.94230495 22.30894196 -3.4375 19.4375 C-2.303125 13.023125 -1.16875 6.60875 0 0 Z " fill="#39B5E0" transform="translate(355,172)"/>
<path d="M0 0 C0.84056946 0.00015106 1.68113892 0.00030212 2.54718018 0.00045776 C3.44523376 0.01078033 4.34328735 0.02110291 5.26855469 0.03173828 C6.19512878 0.03456818 7.12170288 0.03739807 8.07635498 0.04031372 C11.03117878 0.05149467 13.98569774 0.07659552 16.94042969 0.10205078 C18.94563364 0.11208327 20.95084235 0.12120865 22.95605469 0.12939453 C27.8676302 0.15142721 32.77897828 0.18594283 37.69042969 0.22705078 C39.65985411 6.81691117 37.39872244 14.20174608 36.26953125 20.86181641 C35.96784001 22.68234463 35.6828691 24.50572598 35.41503906 26.33154297 C33.19767576 41.43255165 33.19767576 41.43255165 29.59082031 45.72680664 C27.30192355 47.29083876 25.3002188 48.31487796 22.69042969 49.22705078 C21.43963623 49.71407471 21.43963623 49.71407471 20.16357422 50.2109375 C3.4817457 56.42861002 -16.45364329 54.37699039 -33.95019531 54.35986328 C-36.40907806 54.36053894 -38.86796074 54.36151113 -41.32684326 54.36276245 C-46.45699709 54.36422823 -51.58713338 54.36212187 -56.71728516 54.35742188 C-63.2333733 54.35173744 -69.74942012 54.35500266 -76.26550674 54.36099434 C-81.33785299 54.36464072 -86.41018975 54.36344262 -91.48253632 54.36086655 C-93.88226069 54.36020787 -96.28198598 54.36098781 -98.68170929 54.3633461 C-154.83305379 54.40642111 -154.83305379 54.40642111 -171.30957031 39.22705078 C-175.13241308 34.94739032 -177.89517239 30.43706734 -180.30957031 25.22705078 C-180.63957031 24.89705078 -180.96957031 24.56705078 -181.30957031 24.22705078 C-181.35020863 22.56087963 -181.35229131 20.89316983 -181.30957031 19.22705078 C-177.42644603 18.50597904 -173.76374171 18.10517771 -169.81614685 18.12025452 C-168.74967422 18.12177017 -167.6832016 18.12328583 -166.58441162 18.12484741 C-165.42951233 18.13158478 -164.27461304 18.13832214 -163.0847168 18.14526367 C-161.85626541 18.14833023 -160.62781403 18.15139679 -159.36213684 18.15455627 C-156.69721242 18.16170313 -154.03236149 18.17063552 -151.36746025 18.18245125 C-147.14179605 18.20083022 -142.91613987 18.21036706 -138.69044495 18.21836853 C-126.67632452 18.24245075 -114.6622539 18.27821821 -102.64819336 18.32299805 C-96.00710773 18.34767317 -89.36604188 18.36495932 -82.72491699 18.37455744 C-78.53697471 18.38104498 -74.34919694 18.3964871 -70.16131103 18.41887486 C-66.92094939 18.43352346 -63.68057548 18.43480001 -60.44018555 18.43823242 C-59.29945587 18.44699402 -58.1587262 18.45575562 -56.98342896 18.46478271 C-41.67057185 18.44639721 -27.35630158 15.92074347 -14.36816406 7.49658203 C-12.30957031 6.22705078 -12.30957031 6.22705078 -9.30957031 5.22705078 C-8.97957031 4.23705078 -8.64957031 3.24705078 -8.30957031 2.22705078 C-5.51157983 0.39624749 -3.30545069 -0.01991235 0 0 Z " fill="#042032" transform="translate(279.3095703125,270.77294921875)"/>
<path d="M0 0 C15.67033298 -0.41177517 28.45148829 1.17693709 41.0546875 11.15234375 C50.56645654 20.18661434 55.68695219 31.7879518 56.08668518 44.82778931 C56.11556107 48.26974909 56.1123302 51.71029338 56.09765625 55.15234375 C56.0962413 56.40761368 56.09482635 57.66288361 56.09336853 58.95619202 C56.08873576 62.27205351 56.07977139 65.58784452 56.06866455 68.90368652 C56.05838292 72.29581091 56.05385653 75.68794261 56.04882812 79.08007812 C56.03782572 85.72007136 56.02110753 92.36003161 56 99 C50.82317251 99.26709031 45.64633569 99.50006955 40.46655273 99.7019043 C38.70572356 99.77527893 36.94525297 99.85787311 35.18530273 99.94995117 C32.65126456 100.08091107 30.11777509 100.17836799 27.58203125 100.26953125 C26.79850784 100.31721146 26.01498444 100.36489166 25.2077179 100.41401672 C21.1180824 100.52668982 19.31183222 100.25015856 16.0769043 97.6550293 C14 95 14 95 12.1875 92.25 C8.57072088 86.87649959 4.4161203 81.61074687 -1 78 C-1 77.34 -1 76.68 -1 76 C-2.11375 75.5978125 -2.11375 75.5978125 -3.25 75.1875 C-5.86636554 74.05770579 -7.80187111 72.79106798 -10 71 C-9.39571952 66.91178144 -8.02238237 63.87266766 -6.0625 60.25 C1.04998523 46.1614801 0.33938175 30.20611333 -3 15 C-2.34 15 -1.68 15 -1 15 C-1.01160156 14.08476563 -1.02320313 13.16953125 -1.03515625 12.2265625 C-1.04417969 11.03804687 -1.05320312 9.84953125 -1.0625 8.625 C-1.07410156 7.44164063 -1.08570313 6.25828125 -1.09765625 5.0390625 C-1 2 -1 2 0 0 Z " fill="#042032" transform="translate(271,94)"/>
<path d="M0 0 C0 0.99 0 1.98 0 3 C-1.2065625 4.175625 -1.2065625 4.175625 -2.4375 5.375 C-5.09849617 8.10089852 -5.68258573 9.2968335 -6 13 C-6.99 13 -7.98 13 -9 13 C-9.12375 13.556875 -9.2475 14.11375 -9.375 14.6875 C-10.05976279 17.22112231 -11.00938491 19.57178495 -12 22 C-11.07547059 21.99815641 -10.15094118 21.99631283 -9.19839573 21.99441338 C13.31175953 21.94998706 35.8219091 21.91713554 58.33209896 21.89637566 C69.21791582 21.88606914 80.1037037 21.87202073 90.98950195 21.84912109 C100.47908106 21.82916812 109.96863916 21.81627902 119.45823866 21.81182301 C124.48150804 21.80921887 129.50471735 21.80311096 134.52796745 21.78853989 C139.25979046 21.77492588 143.99152887 21.77078508 148.7233696 21.77378464 C150.45631813 21.77323618 152.18926961 21.76928156 153.92220116 21.76158905 C171.40903864 21.68779769 171.40903864 21.68779769 178 24 C179.22016811 26.07723808 179.22016811 26.07723808 180 28 C181.65 28 183.3 28 185 28 C185 28.66 185 29.32 185 30 C191.4945467 31.85516018 191.4945467 31.85516018 198 31 C197.979375 31.94875 197.95875 32.8975 197.9375 33.875 C197.77448174 36.90666283 197.77448174 36.90666283 199 39 C201.30965848 40.05352843 203.6429774 41.05719096 206 42 C206 44.31 206 46.62 206 49 C207.65 49 209.3 49 211 49 C210.67 45.37 210.34 41.74 210 38 C209.34 38 208.68 38 208 38 C208 35.69 208 33.38 208 31 C207.34 30.67 206.68 30.34 206 30 C206.875 25.25 206.875 25.25 208 23 C207.07038954 20.43463266 205.93968652 17.99207227 204.8125 15.5078125 C203.93620908 12.80310689 204.02441854 11.62187518 205 9 C212.52478758 19.0330501 215.3090083 32.59660983 214 45 C213.67 45.66 213.34 46.32 213 47 C212.77049681 49.204364 212.58924067 51.41392173 212.4375 53.625 C212.35371094 54.81351563 212.26992188 56.00203125 212.18359375 57.2265625 C212.12300781 58.14179687 212.06242188 59.05703125 212 60 C211.01 60 210.02 60 209 60 C208.67128906 59.32195312 208.34257812 58.64390625 208.00390625 57.9453125 C200.82339095 43.89563215 190.00902171 33.3175981 175 28 C164.84188988 24.91867978 155.07820618 24.59130843 144.58325195 24.67529297 C142.87031695 24.67778183 141.15737955 24.67892321 139.44444275 24.67883301 C134.83354766 24.68221681 130.2229021 24.70388022 125.61207986 24.72874975 C120.77641523 24.75136109 115.94073475 24.7559366 111.10502625 24.76223755 C101.96338279 24.77667346 92.82185063 24.80556786 83.68026465 24.84048474 C67.27729247 24.90265254 50.87425228 24.93996266 34.47119683 24.97207749 C28.71553519 24.9839218 22.95993759 25.00211769 17.20431197 25.02559257 C13.63696508 25.03938163 10.06961449 25.04925248 6.50225258 25.05822754 C4.84375374 25.06331138 3.18525926 25.0701486 1.52677536 25.07883072 C-0.72924873 25.09045574 -2.98520826 25.09601672 -5.24125671 25.10006714 C-6.50566432 25.10488539 -7.77007193 25.10970364 -9.07279491 25.11466789 C-12 25 -12 25 -14 24 C-13.80897857 15.4040356 -8.47432743 8.25247899 -2.5625 2.3125 C-1.716875 1.549375 -0.87125 0.78625 0 0 Z " fill="#4AB5CA" transform="translate(58,49)"/>
<path d="M0 0 C0.66 0.33 1.32 0.66 2 1 C4.43402975 1.08676006 6.83867878 1.11254152 9.27246094 1.09333801 C10.03073842 1.09137017 10.7890159 1.08940234 11.57027149 1.08737487 C14.12501267 1.07962245 16.67966511 1.06475848 19.234375 1.05004883 C21.06078418 1.04322189 22.88719528 1.03689107 24.71360779 1.03102112 C28.65490127 1.01766559 32.59617035 1.00151953 36.53744507 0.98346901 C42.77405396 0.95567437 49.01066248 0.93863825 55.24731445 0.92399597 C57.3819733 0.91885158 59.51663211 0.91369496 61.65129089 0.90852642 C62.72056509 0.90594086 63.78983929 0.9033553 64.89151573 0.90069139 C79.41455415 0.86464299 93.93751582 0.81938614 108.46044922 0.75317383 C118.25072206 0.70862484 128.04092766 0.67840232 137.83129311 0.66431636 C143.01170997 0.65625346 148.19187031 0.64078619 153.37219238 0.60764503 C158.25101225 0.5764918 163.12952444 0.56412427 168.00844002 0.56586266 C169.79420447 0.56317611 171.57997444 0.55366603 173.36565971 0.53663635 C182.52222332 0.45313791 190.75521658 0.41346929 199 5 C199 5.66 199 6.32 199 7 C195.7 7 192.4 7 189 7 C188.67 6.34 188.34 5.68 188 5 C186.89785156 5.01160156 185.79570312 5.02320313 184.66015625 5.03515625 C174.06456535 5.11041905 163.56840722 4.74915292 153 4 C152.67 4.66 152.34 5.32 152 6 C151.33250732 5.83846436 150.66501465 5.67692871 149.97729492 5.51049805 C146.42595378 4.9015719 142.95434099 4.83782493 139.36328125 4.83203125 C138.64262985 4.82870285 137.92197845 4.82537445 137.17948914 4.82194519 C135.66418086 4.81690344 134.14886158 4.81453601 132.63354492 4.81469727 C130.30955045 4.81249721 127.98602085 4.79427624 125.66210938 4.77539062 C124.18750162 4.77245888 122.71289162 4.77047262 121.23828125 4.76953125 C120.54245438 4.76234573 119.8466275 4.75516022 119.12971497 4.74775696 C115.1180284 4.65678815 115.1180284 4.65678815 112 7 C111.01 6.01 111.01 6.01 110 5 C107.18288521 4.72138603 107.18288521 4.72138603 103.8984375 4.8046875 C102.68671875 4.81113281 101.475 4.81757813 100.2265625 4.82421875 C98.95554687 4.84097656 97.68453125 4.85773438 96.375 4.875 C94.456875 4.88853516 94.456875 4.88853516 92.5 4.90234375 C89.33314833 4.92597697 86.16666576 4.95892371 83 5 C82.67 5.66 82.34 6.32 82 7 C81.34 7 80.68 7 80 7 C80 6.01 80 5.02 80 4 C78.68 4.66 77.36 5.32 76 6 C75.505 5.505 75.505 5.505 75 5 C72.55391002 4.84019563 70.13268942 4.74070553 67.68359375 4.68359375 C66.95253922 4.66281265 66.22148468 4.64203156 65.46827698 4.62062073 C63.12478344 4.55504976 60.78117461 4.49620568 58.4375 4.4375 C56.85220145 4.39432192 55.26691471 4.35070787 53.68164062 4.30664062 C49.78787963 4.1993608 45.89400228 4.0981151 42 4 C41.67 4.66 41.34 5.32 41 6 C39.63681641 5.7525 39.63681641 5.7525 38.24609375 5.5 C31.84241602 4.58541892 25.34282562 4.95957701 18.89257812 5.0390625 C13.15075379 5.08236979 7.67754168 4.87451906 2 4 C1.67 4.66 1.34 5.32 1 6 C0.01 6.33 -0.98 6.66 -2 7 C-2.66 11.95 -3.32 16.9 -4 22 C-4.33 22 -4.66 22 -5 22 C-5 15.73 -5 9.46 -5 3 C-3.35 2.67 -1.7 2.34 0 2 C0 1.34 0 0.68 0 0 Z " fill="#515A81" transform="translate(46,185)"/>
<path d="M0 0 C2.01400102 0.39226183 4.01276996 0.8641319 6 1.375 C7.093125 1.65085937 8.18625 1.92671875 9.3125 2.2109375 C12 3 12 3 13 4 C14.63563945 4.06416489 16.27412624 4.05696226 17.91064453 4.02172852 C18.96736862 4.0016423 20.02409271 3.98155609 21.11283875 3.96086121 C22.27443008 3.93381607 23.43602142 3.90677094 24.6328125 3.87890625 C26.43665154 3.84335381 26.43665154 3.84335381 28.27693176 3.80708313 C30.87174329 3.75588568 33.46651535 3.70265747 36.06124878 3.64764404 C42.85694498 3.50358539 49.65308228 3.38287526 56.44921875 3.26171875 C57.46333297 3.24348179 57.46333297 3.24348179 58.49793434 3.2248764 C69.97774953 3.01958572 81.45572605 2.87378752 92.9375 2.875 C93.70083649 2.87491943 94.46417297 2.87483887 95.25064087 2.87475586 C107.71255742 2.88668447 120.15696205 3.23085758 132.61138916 3.63757324 C145.87572283 4.06460708 158.83984426 3.98834619 172 2 C172.33 2.99 172.66 3.98 173 5 C156.71576682 9.4256894 139.10479545 8.14920434 122.359375 8.1328125 C119.90049225 8.13348815 117.44160957 8.13446035 114.98272705 8.13571167 C109.85257322 8.13717745 104.72243693 8.13507109 99.59228516 8.13037109 C93.07619701 8.12468666 86.56015019 8.12795188 80.04406357 8.13394356 C74.97171732 8.13758994 69.89938056 8.13639183 64.827034 8.13381577 C62.42730962 8.13315709 60.02758433 8.13393703 57.62786102 8.13629532 C46.22131875 8.14504554 34.82482643 8.09262195 23.42675781 7.61669922 C22.18813051 7.57118518 22.18813051 7.57118518 20.92448044 7.52475166 C6.83974296 6.83974296 6.83974296 6.83974296 3 3 C1.68252676 2.30251417 0.35085807 1.63040043 -1 1 C-0.67 0.67 -0.34 0.34 0 0 Z " fill="#142B3B" transform="translate(123,317)"/>
<path d="M0 0 C1 3 1 3 0.1015625 5.05078125 C-4.25459468 11.72330772 -9.33606929 16.44535643 -17 19 C-19.38396733 19.09269327 -21.77052767 19.12192405 -24.15629578 19.12025452 C-25.2565745 19.12153615 -25.2565745 19.12153615 -26.37908107 19.12284368 C-28.84348428 19.12449428 -31.30781983 19.11898397 -33.7722168 19.11352539 C-35.53618366 19.1132434 -37.30015064 19.11340148 -39.06411743 19.1139679 C-43.85925164 19.11425542 -48.65436095 19.10836599 -53.44948936 19.10139394 C-58.45833444 19.09515287 -63.46718007 19.094556 -68.47602844 19.09336853 C-77.96387169 19.09025744 -87.45170345 19.08204704 -96.93954164 19.07201904 C-107.73988784 19.06085102 -118.54023458 19.05534571 -129.34058511 19.05032361 C-151.56039649 19.03986425 -173.78019752 19.02226909 -196 19 C-196.33 18.34 -196.66 17.68 -197 17 C-195.02 16.67 -193.04 16.34 -191 16 C-191 16.66 -191 17.32 -191 18 C-190.09250299 17.9922694 -190.09250299 17.9922694 -189.16667271 17.98438263 C-174.4175487 17.85876715 -159.66842114 17.73357491 -144.91928959 17.60884857 C-137.7866047 17.54852076 -130.65392106 17.48805188 -123.52124023 17.42724609 C-117.30140193 17.37422261 -111.08156141 17.32146872 -104.86171812 17.26903296 C-101.57110548 17.24128251 -98.28049445 17.21336065 -94.98988533 17.18519592 C-91.30844533 17.15370893 -87.6270016 17.1226984 -83.94555664 17.09179688 C-82.86517624 17.08244614 -81.78479584 17.0730954 -80.67167664 17.0634613 C-79.65802032 17.05504715 -78.64436401 17.046633 -77.59999084 17.03796387 C-76.65203707 17.02941879 -75.70408329 17.02087372 -74.72740364 17.0120697 C-72.08940728 17.00039566 -69.45370628 17.02783145 -66.81590271 17.0567627 C-63.21408201 17.44625245 -63.21408201 17.44625245 -62 16 C-59.66702567 15.95907063 -57.33294775 15.95758277 -55 16 C-55 16.66 -55 17.32 -55 18 C-53.18674449 17.88648483 -51.37436643 17.75887039 -49.5625 17.625 C-48.55316406 17.55539063 -47.54382813 17.48578125 -46.50390625 17.4140625 C-45.26447266 17.20910156 -45.26447266 17.20910156 -44 17 C-43.67 16.34 -43.34 15.68 -43 15 C-42.67 15.66 -42.34 16.32 -42 17 C-41.01 16.67 -40.02 16.34 -39 16 C-37.50408022 15.93034134 -36.00519194 15.91552012 -34.5078125 15.9375 C-33.20263672 15.94910156 -33.20263672 15.94910156 -31.87109375 15.9609375 C-30.0481755 15.98686806 -28.22525881 16.01290877 -26.40234375 16.0390625 C-20.14681254 16.09541595 -20.14681254 16.09541595 -14 15 C-14 13.02 -14 11.04 -14 9 C-10.6828589 7.5783681 -7.55780196 6.60990891 -4 6 C-4 5.01 -4 4.02 -4 3 C-3.01 3 -2.02 3 -1 3 C-0.67 2.01 -0.34 1.02 0 0 Z " fill="#4F7CA2" transform="translate(239,137)"/>
<path d="M0 0 C2 3 2 3 2.5 6.5625 C2.65847757 10.0571192 2.65847757 10.0571192 5 12 C5.4140625 14.6015625 5.4140625 14.6015625 5.625 17.625 C5.69976562 18.62789062 5.77453125 19.63078125 5.8515625 20.6640625 C5.92503906 21.82035156 5.92503906 21.82035156 6 23 C8.64 23.33 11.28 23.66 14 24 C14 25.98 14 27.96 14 30 C15.65 30.33 17.3 30.66 19 31 C18.34 31.33 17.68 31.66 17 32 C17.33 32.66 17.66 33.32 18 34 C19.32 34 20.64 34 22 34 C22.33 35.65 22.66 37.3 23 39 C29.93 39 36.86 39 44 39 C44 39.66 44 40.32 44 41 C44.66 40.67 45.32 40.34 46 40 C49.82214055 39.62780962 53.66359348 39.53028312 57.5 39.375 C58.551875 39.3234375 59.60375 39.271875 60.6875 39.21875 C66.53255641 38.97279466 72.14976312 39.05210747 77.95898438 39.76806641 C80.15444406 40.05645484 80.15444406 40.05645484 83 40 C83.66 40.33 84.32 40.66 85 41 C85.495 40.01 85.495 40.01 86 39 C100.85 39.495 100.85 39.495 116 40 C116 40.66 116 41.32 116 42 C115.01604248 42.02505615 114.03208496 42.0501123 113.01831055 42.07592773 C109.36729943 42.1701082 105.71647384 42.2703029 102.06567383 42.37231445 C100.48563985 42.41562305 98.90556031 42.45730106 97.32543945 42.49731445 C95.05405952 42.55511583 92.78290811 42.6187816 90.51171875 42.68359375 C89.80536789 42.70030624 89.09901703 42.71701874 88.3712616 42.73423767 C85.3335176 42.8259747 82.90376942 43.03207686 80 44 C79.67 43.67 79.34 43.34 79 43 C76.41289167 42.92352621 73.85223913 42.9093824 71.265625 42.9375 C70.47661804 42.94128662 69.68761108 42.94507324 68.87469482 42.94897461 C65.49436015 42.96527941 62.11414581 42.9929567 58.73388672 43.02050781 C30.78262015 43.22897653 30.78262015 43.22897653 19 39 C19 38.34 19 37.68 19 37 C18.278125 36.773125 17.55625 36.54625 16.8125 36.3125 C13.39138694 34.71598057 11.53606327 32.78966959 9 30 C7.700625 28.6078125 7.700625 28.6078125 6.375 27.1875 C0.24539413 18.9609237 -0.17703202 9.95313359 0 0 Z M5 11 C7 12 7 12 7 12 Z " fill="#5D2D7C" transform="translate(41,217)"/>
<path d="M0 0 C6.31334326 4.96048399 8.32968688 13.74405074 9.69140625 21.3359375 C11.12857143 33.74285714 11.12857143 33.74285714 9 38 C8.77049681 40.204364 8.58924067 42.41392173 8.4375 44.625 C8.35371094 45.81351563 8.26992188 47.00203125 8.18359375 48.2265625 C8.12300781 49.14179687 8.06242187 50.05703125 8 51 C7.01 51 6.02 51 5 51 C4.67128906 50.32195312 4.34257812 49.64390625 4.00390625 48.9453125 C0.25051858 41.60128568 -4.24685919 35.88004833 -10 30 C-10.556875 29.42765625 -11.11375 28.8553125 -11.6875 28.265625 C-12.77767035 27.16306635 -13.88579423 26.07826365 -15 25 C-11.81237635 22.87491756 -9.73487777 22.4979837 -6 22 C-6.020625 22.94875 -6.04125 23.8975 -6.0625 24.875 C-6.22551826 27.90666283 -6.22551826 27.90666283 -5 30 C-2.69034152 31.05352843 -0.3570226 32.05719096 2 33 C2 35.31 2 37.62 2 40 C3.65 40 5.3 40 7 40 C6.67 36.37 6.34 32.74 6 29 C5.34 29 4.68 29 4 29 C4 26.69 4 24.38 4 22 C3.34 21.67 2.68 21.34 2 21 C2.875 16.25 2.875 16.25 4 14 C3.22507348 11.66668942 3.22507348 11.66668942 2.0625 9.125 C0.52033258 5.62245027 0 3.93743263 0 0 Z " fill="#2CB0CE" transform="translate(262,58)"/>
<path d="M0 0 C23.2004964 -0.09347627 46.40096171 -0.16399541 69.60160828 -0.20724869 C80.37428079 -0.2278665 91.14683623 -0.25597226 101.91943359 -0.30175781 C111.30975422 -0.34164937 120.69999006 -0.36743849 130.09039307 -0.37635398 C135.06173195 -0.38156477 140.03282827 -0.39379592 145.00408936 -0.42292023 C149.68590973 -0.45012589 154.36738825 -0.45843456 159.04928017 -0.45243073 C160.76492484 -0.45352866 162.48058128 -0.46145185 164.19615746 -0.4768219 C180.44297153 -0.61520541 180.44297153 -0.61520541 187 4 C187.33 4.66 187.66 5.32 188 6 C186.68 6 185.36 6 184 6 C184 5.34 184 4.68 184 4 C182.02 4.99 180.04 5.98 178 7 C177.01 4.525 177.01 4.525 176 2 C117.92 1.67 59.84 1.34 0 1 C0 0.67 0 0.34 0 0 Z " fill="#4394B0" transform="translate(43,104)"/>
<path d="M0 0 C50.49 0 100.98 0 153 0 C153 0.99 153 1.98 153 3 C152.49098145 2.83846436 151.98196289 2.67692871 151.45751953 2.51049805 C146.13887796 1.40566201 140.55553614 1.81410525 135.13623047 1.81469727 C132.87578784 1.81250077 130.61582576 1.7942965 128.35546875 1.77539062 C126.92187667 1.77245831 125.48828227 1.77047243 124.0546875 1.76953125 C122.74999512 1.76542236 121.44530273 1.76131348 120.10107422 1.75708008 C116.89661986 1.6702296 116.89661986 1.6702296 115 4 C114.01 3.01 114.01 3.01 113 2 C110.18288521 1.72138603 110.18288521 1.72138603 106.8984375 1.8046875 C105.68671875 1.81113281 104.475 1.81757813 103.2265625 1.82421875 C101.95554687 1.84097656 100.68453125 1.85773438 99.375 1.875 C97.456875 1.88853516 97.456875 1.88853516 95.5 1.90234375 C92.33314833 1.92597697 89.16666576 1.95892371 86 2 C85.67 2.66 85.34 3.32 85 4 C84.34 4 83.68 4 83 4 C83 3.01 83 2.02 83 1 C81.68 1.66 80.36 2.32 79 3 C78.505 2.505 78.505 2.505 78 2 C75.55391002 1.84019563 73.13268942 1.74070553 70.68359375 1.68359375 C69.95253922 1.66281265 69.22148468 1.64203156 68.46827698 1.62062073 C66.12478344 1.55504976 63.78117461 1.49620568 61.4375 1.4375 C59.85220145 1.39432192 58.26691471 1.35070787 56.68164062 1.30664062 C52.78787963 1.1993608 48.89400228 1.0981151 45 1 C44.67 1.66 44.34 2.32 44 3 C42.63681641 2.7525 42.63681641 2.7525 41.24609375 2.5 C34.84241602 1.58541892 28.34282562 1.95957701 21.89257812 2.0390625 C16.15075379 2.08236979 10.67754168 1.87451906 5 1 C4.67 1.66 4.34 2.32 4 3 C1.9375 3.625 1.9375 3.625 0 4 C0 2.68 0 1.36 0 0 Z " fill="#525F9B" transform="translate(43,188)"/>
<path d="M0 0 C0.33 0.66 0.66 1.32 1 2 C2.98 2 4.96 2 7 2 C7 2.33 7 2.66 7 3 C2.47700593 3.71964917 -1.85531489 4.12294087 -6.43351746 4.11352539 C-7.68265427 4.1134549 -8.93179108 4.1133844 -10.21878052 4.11331177 C-11.58490023 4.10817908 -12.95101961 4.10295763 -14.31713867 4.09765625 C-15.76979013 4.09573506 -17.22244225 4.09427221 -18.6750946 4.0932312 C-21.79235767 4.09008021 -24.90959336 4.08382695 -28.02684593 4.07516479 C-32.95582751 4.06160702 -37.88480012 4.05574112 -42.813797 4.05102539 C-53.27171011 4.03994335 -63.72960153 4.02039574 -74.1875 4 C-85.48881755 3.97797524 -96.79012631 3.95740656 -108.091461 3.94658184 C-112.99186158 3.94159861 -117.89222086 3.93173829 -122.7926048 3.91815186 C-125.83780557 3.91069788 -128.88300064 3.90737781 -131.9282093 3.9051857 C-133.34075129 3.90331231 -134.7532922 3.89970861 -136.16582489 3.89425278 C-138.09301601 3.88704285 -140.02022887 3.88658411 -141.94743347 3.88647461 C-143.56536946 3.88314369 -143.56536946 3.88314369 -145.21599102 3.87974548 C-147.65261977 3.984995 -149.67693836 4.2939276 -152 5 C-152 5.66 -152 6.32 -152 7 C-153.65 6.67 -155.3 6.34 -157 6 C-157 5.34 -157 4.68 -157 4 C-152.32519753 2.51057242 -148.41357928 1.75119266 -143.46363831 1.75949097 C-142.19189255 1.75674164 -140.92014679 1.75399231 -139.60986328 1.75115967 C-138.2185049 1.75823609 -136.82714748 1.76550568 -135.43579102 1.77294922 C-133.95694486 1.77351393 -132.47809815 1.7731956 -130.99925232 1.77206421 C-126.99974482 1.77149204 -123.00035809 1.78322434 -119.00087857 1.79721212 C-114.81552832 1.80974213 -110.63017508 1.81089177 -106.44480896 1.81326294 C-98.52600519 1.81947105 -90.60725685 1.83587279 -82.68847746 1.85596192 C-73.67035666 1.87834177 -64.65223317 1.88931959 -55.6340915 1.89935279 C-37.08936294 1.92023962 -18.54468593 1.95540256 0 2 C0 1.34 0 0.68 0 0 Z " fill="#2DD1E0" transform="translate(227,39)"/>
<path d="M0 0 C2 3 2 3 2.5 6.5625 C2.65847757 10.0571192 2.65847757 10.0571192 5 12 C5.4140625 14.6015625 5.4140625 14.6015625 5.625 17.625 C5.69976562 18.62789062 5.77453125 19.63078125 5.8515625 20.6640625 C5.92503906 21.82035156 5.92503906 21.82035156 6 23 C8.64 23.33 11.28 23.66 14 24 C14 25.98 14 27.96 14 30 C15.65 30.33 17.3 30.66 19 31 C18.34 31.33 17.68 31.66 17 32 C17.33 32.66 17.66 33.32 18 34 C19.32 34 20.64 34 22 34 C22.33 35.65 22.66 37.3 23 39 C26.3 39.33 29.6 39.66 33 40 C32.505 40.99 32.505 40.99 32 42 C30.20767663 41.69128878 28.41615679 41.37790936 26.625 41.0625 C25.62726563 40.88847656 24.62953125 40.71445312 23.6015625 40.53515625 C21 40 21 40 19 39 C19 38.34 19 37.68 19 37 C18.278125 36.773125 17.55625 36.54625 16.8125 36.3125 C13.39138694 34.71598057 11.53606327 32.78966959 9 30 C7.700625 28.6078125 7.700625 28.6078125 6.375 27.1875 C0.24539413 18.9609237 -0.17703202 9.95313359 0 0 Z M5 11 C7 12 7 12 7 12 Z " fill="#4C3679" transform="translate(41,217)"/>
<path d="M0 0 C0.71532898 0.02794647 1.43065796 0.05589294 2.16766357 0.08468628 C3.70789426 0.14686487 5.24777506 0.21825852 6.78720093 0.2979126 C10.02871908 0.4650474 13.27141687 0.5869168 16.5148468 0.71035767 C18.1692983 0.77345379 19.82366859 0.83871473 21.47795105 0.90609741 C29.30143884 1.21858321 37.11174418 1.30302113 44.94140625 1.296875 C46.10792725 1.30106445 47.27444824 1.30525391 48.47631836 1.30957031 C53.3164341 1.30245302 58.00674818 1.20091456 62.8046875 0.5390625 C66.72998538 0.1740991 67.56228086 0.30961203 70.75390625 2.171875 C66.64056237 3.30895219 62.61867406 3.39727036 58.375 3.48828125 C57.56652115 3.50906235 56.7580423 3.52984344 55.92506409 3.55125427 C53.34726214 3.61647983 50.76935941 3.67546272 48.19140625 3.734375 C46.45246394 3.77759362 44.71353144 3.82120896 42.97460938 3.86523438 C24.904701 4.31543578 6.82874894 4.171875 -11.24609375 4.171875 C-7.82633377 -0.22519054 -5.42212598 -0.26156585 0 0 Z " fill="#5D2C7B" transform="translate(168.24609375,255.828125)"/>
<path d="M0 0 C-0.33 0.99 -0.66 1.98 -1 3 C-2.14025635 2.99476318 -3.2805127 2.98952637 -4.45532227 2.98413086 C-9.82436881 2.96159793 -15.19341819 2.94827192 -20.5625 2.9375 C-21.5316333 2.935224 -22.5007666 2.932948 -23.49926758 2.93060303 C-37.64866841 2.90511653 -51.76023107 3.11188772 -65.89282227 3.82006836 C-67.06256592 3.87171143 -68.23230957 3.92335449 -69.4375 3.9765625 C-70.44683594 4.02893066 -71.45617187 4.08129883 -72.49609375 4.13525391 C-75 4 -75 4 -78 2 C-75.07724038 -0.92275962 -66.74263542 0.54791407 -62.625 0.4375 C-61.89178528 0.41632111 -61.15857056 0.39514221 -60.40313721 0.37332153 C-40.27303316 -0.19904585 -20.1359808 -0.09376979 0 0 Z " fill="#122535" transform="translate(238,289)"/>
<path d="M0 0 C4.29 0 8.58 0 13 0 C12.67 0.99 12.34 1.98 12 3 C8.04 3 4.08 3 0 3 C0.11503269 5.5216376 0.24174777 8.0418119 0.375 10.5625 C0.42140625 11.61920898 0.42140625 11.61920898 0.46875 12.69726562 C0.66024722 16.16017365 1.00951001 19.03112366 2.03125 22.375 C3.30179163 27.12928483 3.2165975 31.54407947 3.125 36.4375 C3.11597656 37.35982422 3.10695313 38.28214844 3.09765625 39.23242188 C3.0742766 41.48855809 3.04150916 43.74413684 3 46 C2.01 46 1.02 46 0 46 C-0.04898437 44.76765625 -0.09796875 43.5353125 -0.1484375 42.265625 C-0.55198623 33.047379 -1.13659063 24.06376792 -3 15 C-2.34 15 -1.68 15 -1 15 C-1.01160156 14.08476563 -1.02320313 13.16953125 -1.03515625 12.2265625 C-1.04417969 11.03804687 -1.05320312 9.84953125 -1.0625 8.625 C-1.07410156 7.44164063 -1.08570313 6.25828125 -1.09765625 5.0390625 C-1 2 -1 2 0 0 Z " fill="#0F2A3A" transform="translate(271,94)"/>
<path d="M0 0 C0.99 0.33 1.98 0.66 3 1 C2.88426734 2.85476817 2.75691885 4.70881274 2.625 6.5625 C2.55539062 7.59503906 2.48578125 8.62757813 2.4140625 9.69140625 C2 13 2 13 0 20 C-17.82 20 -35.64 20 -54 20 C-54 19.34 -54 18.68 -54 18 C-37.83 18 -21.66 18 -5 18 C-4.67 16.35 -4.34 14.7 -4 13 C-3.34 13 -2.68 13 -2 13 C-1.40929986 11.05396726 -1.40929986 11.05396726 -1 9 C-1.495 8.505 -1.495 8.505 -2 8 C-2.04092937 5.66702567 -2.04241723 3.33294775 -2 1 C-1.34 0.67 -0.68 0.34 0 0 Z " fill="#53A6D6" transform="translate(388,272)"/>
<path d="M0 0 C1 3 1 3 0.1015625 5.05078125 C-0.62933594 6.17033203 -0.62933594 6.17033203 -1.375 7.3125 C-1.83648437 8.05113281 -2.29796875 8.78976563 -2.7734375 9.55078125 C-6.89318875 14.08250762 -10.95697958 17.54171662 -17.16601562 18.47680664 C-20.65070498 18.58864295 -24.0795102 18.52534488 -27.5625 18.375 C-28.76197266 18.34792969 -29.96144531 18.32085937 -31.19726562 18.29296875 C-34.133421 18.22278177 -37.06573113 18.12450929 -40 18 C-39.67 17.34 -39.34 16.68 -39 16 C-38.42032471 16.00523682 -37.84064941 16.01047363 -37.2434082 16.01586914 C-34.5997833 16.03674334 -31.95617579 16.04969327 -29.3125 16.0625 C-27.94448242 16.07506836 -27.94448242 16.07506836 -26.54882812 16.08789062 C-25.21948242 16.09272461 -25.21948242 16.09272461 -23.86328125 16.09765625 C-23.05157471 16.10289307 -22.23986816 16.10812988 -21.40356445 16.11352539 C-18.85135327 15.9929791 -16.48973863 15.559949 -14 15 C-14 13.02 -14 11.04 -14 9 C-10.6828589 7.5783681 -7.55780196 6.60990891 -4 6 C-4 5.01 -4 4.02 -4 3 C-3.01 3 -2.02 3 -1 3 C-0.67 2.01 -0.34 1.02 0 0 Z " fill="#417FAF" transform="translate(239,137)"/>
<path d="M0 0 C1 3 1 3 0.1796875 5.26953125 C-4.45863837 14.31010054 -9.84846009 21.16684299 -19 26 C-21.8125 26.1953125 -21.8125 26.1953125 -24 26 C-23.01 24.68 -22.02 23.36 -21 22 C-21.66 22 -22.32 22 -23 22 C-23 21.01 -23 20.02 -23 19 C-21.68 19 -20.36 19 -19 19 C-19 18.34 -19 17.68 -19 17 C-17.7625 16.9175 -16.525 16.835 -15.25 16.75 C-12.28523201 16.3662623 -11.04370996 16.02950422 -8.5 14.3125 C-6.59696093 11.3786481 -6.92537058 9.43295333 -7 6 C-6.01 5.34 -5.02 4.68 -4 4 C-4.66 3.67 -5.32 3.34 -6 3 C-4.02 2.01 -2.04 1.02 0 0 Z " fill="#4D2F69" transform="translate(263,231)"/>
<path d="M0 0 C1.83499146 -0.36076355 1.83499146 -0.36076355 4.08251953 -0.34057617 C5.34360031 -0.34023628 5.34360031 -0.34023628 6.63015747 -0.33988953 C7.53853363 -0.32440567 8.44690979 -0.30892181 9.3828125 -0.29296875 C10.31221649 -0.28872391 11.24162048 -0.28447906 12.19918823 -0.28010559 C15.17475056 -0.26328012 18.14964156 -0.22562103 21.125 -0.1875 C23.13931315 -0.17245816 25.15363689 -0.15876888 27.16796875 -0.14648438 C32.11223879 -0.11336394 37.05600549 -0.06155529 42 0 C42.93423645 3.01031744 43.04449911 3.86650268 42 7 C39.9375 7.6875 39.9375 7.6875 38 8 C38.33 6.35 38.66 4.7 39 3 C26.46 2.67 13.92 2.34 1 2 C0.67 2.66 0.34 3.32 0 4 C-0.66 3.67 -1.32 3.34 -2 3 C-1.34 2.01 -0.68 1.02 0 0 Z " fill="#182B36" transform="translate(275,271)"/>
<path d="M0 0 C9.57 0 19.14 0 29 0 C29 0.33 29 0.66 29 1 C20.75 1 12.5 1 4 1 C2.60229416 4.74691447 2.60229416 4.74691447 4 7 C3.505 7.4125 3.01 7.825 2.5 8.25 C0.56613908 10.12202338 0.56613908 10.12202338 1 14 C1.66 14 2.32 14 3 14 C3.33 14.99 3.66 15.98 4 17 C3.01 17.66 2.02 18.32 1 19 C0.01 18.34 -0.98 17.68 -2 17 C-1.85941524 14.54126232 -1.71277001 12.08314825 -1.5625 9.625 C-1.52318359 8.92632812 -1.48386719 8.22765625 -1.44335938 7.5078125 C-1.11328125 2.2265625 -1.11328125 2.2265625 0 0 Z " fill="#36C7DF" transform="translate(356,173)"/>
<path d="M0 0 C0.72822464 0.0028299 1.45644928 0.00565979 2.20674133 0.00857544 C4.52992262 0.01975993 6.85271672 0.04486084 9.17578125 0.0703125 C10.75194755 0.08034456 12.3281199 0.08947002 13.90429688 0.09765625 C17.76577392 0.11969354 21.62696196 0.15421109 25.48828125 0.1953125 C25.15828125 3.8253125 24.82828125 7.4553125 24.48828125 11.1953125 C22.48828125 8.1953125 22.48828125 8.1953125 22.48828125 2.1953125 C11.59828125 2.1953125 0.70828125 2.1953125 -10.51171875 2.1953125 C-6.86867011 -0.23338659 -4.20449536 -0.06144425 0 0 Z " fill="#47BADB" transform="translate(417.51171875,212.8046875)"/>
<path d="M0 0 C6.03229582 -0.0494981 12.06447296 -0.08576625 18.09692383 -0.10986328 C20.14837707 -0.11991069 22.19981604 -0.13355092 24.2512207 -0.15087891 C27.20267262 -0.17518246 30.1539349 -0.18649582 33.10546875 -0.1953125 C34.02023483 -0.20563507 34.93500092 -0.21595764 35.87748718 -0.22659302 C40.36493055 -0.22738078 43.92668284 -0.13839902 48 2 C48 2.66 48 3.32 48 4 C44.7 4 41.4 4 38 4 C37.505 3.01 37.505 3.01 37 2 C35.89785156 2.01160156 34.79570312 2.02320313 33.66015625 2.03515625 C23.06456535 2.11041905 12.56840722 1.74915292 2 1 C1.67 1.66 1.34 2.32 1 3 C0.67 2.01 0.34 1.02 0 0 Z " fill="#505D9A" transform="translate(197,188)"/>
<path d="M0 0 C0.99 0 1.98 0 3 0 C2.69555061 6.5761068 1.23297236 11.3026487 -2 17 C-3.50258541 19.71921165 -4 20.81226218 -4 24 C-5.32 24.33 -6.64 24.66 -8 25 C-8.70703125 23.42578125 -8.70703125 23.42578125 -9 21 C-7.98481312 18.6118383 -6.9363585 16.44607387 -5.6875 14.1875 C-3.14331506 9.51211404 -1.30536034 5.17505801 0 0 Z " fill="#0E2738" transform="translate(270,141)"/>
<path d="M0 0 C-0.020625 0.94875 -0.04125 1.8975 -0.0625 2.875 C-0.22551826 5.90666283 -0.22551826 5.90666283 1 8 C3.30965848 9.05352843 5.6429774 10.05719096 8 11 C7.67 11.66 7.34 12.32 7 13 C6.34 13 5.68 13 5 13 C4.67 13.99 4.34 14.98 4 16 C-0.33333333 11.66666667 -4.66666667 7.33333333 -9 3 C-5.87496336 0.91664224 -3.72863529 0 0 0 Z " fill="#2EABCB" transform="translate(256,80)"/>
<path d="M0 0 C17.82 0 35.64 0 54 0 C53.67 3.63 53.34 7.26 53 11 C52.67 11 52.34 11 52 11 C51.505 7.04 51.505 7.04 51 3 C47.72629548 2.27715644 44.65162527 1.86073627 41.30151367 1.79467773 C39.9506794 1.7647599 39.9506794 1.7647599 38.57255554 1.73423767 C37.6140419 1.71752518 36.65552826 1.70081268 35.66796875 1.68359375 C34.67622147 1.66281265 33.68447418 1.64203156 32.66267395 1.62062073 C29.50435101 1.55539948 26.34594712 1.49636798 23.1875 1.4375 C21.04230944 1.39428869 18.89712698 1.35067357 16.75195312 1.30664062 C11.50138689 1.19974628 6.25074068 1.09792963 1 1 C0.67 1.66 0.34 2.32 0 3 C0 2.01 0 1.02 0 0 Z " fill="#4ABDCF" transform="translate(355,172)"/>
<path d="M0 0 C1.32 0 2.64 0 4 0 C4.33 0.99 4.66 1.98 5 3 C7.31 3.33 9.62 3.66 12 4 C11.01 4.495 11.01 4.495 10 5 C10.33 5.66 10.66 6.32 11 7 C12.32 7 13.64 7 15 7 C15.33 8.65 15.66 10.3 16 12 C19.3 12.33 22.6 12.66 26 13 C25.67 13.66 25.34 14.32 25 15 C23.20767663 14.69128878 21.41615679 14.37790936 19.625 14.0625 C18.62726563 13.88847656 17.62953125 13.71445312 16.6015625 13.53515625 C14 13 14 13 12 12 C12 11.34 12 10.68 12 10 C11.278125 9.773125 10.55625 9.54625 9.8125 9.3125 C5.35206364 7.23096303 2.69789496 4.04684244 0 0 Z " fill="#502F6C" transform="translate(48,244)"/>
<path d="M0 0 C0.99 0.33 1.98 0.66 3 1 C3.6875 3.0625 3.6875 3.0625 4 5 C5.65 4.67 7.3 4.34 9 4 C9 7.96 9 11.92 9 16 C8.01 16 7.02 16 6 16 C5.0204042 14.20856793 4.0413367 12.41684696 3.0625 10.625 C2.51722656 9.62726563 1.97195313 8.62953125 1.41015625 7.6015625 C0.5850241 6.07929654 -0.22564391 4.54871217 -1 3 C-0.67 2.01 -0.34 1.02 0 0 Z " fill="#319CBE" transform="translate(261,93)"/>
<path d="M0 0 C0.99 0.33 1.98 0.66 3 1 C2.690625 1.639375 2.38125 2.27875 2.0625 2.9375 C0.36711617 7.82419455 0 12.84508392 0 18 C-0.20625 19.175625 -0.4125 20.35125 -0.625 21.5625 C-0.74875 22.696875 -0.8725 23.83125 -1 25 C-0.34 25.66 0.32 26.32 1 27 C0.38125 27.12375 -0.2375 27.2475 -0.875 27.375 C-3.19120832 27.87197356 -3.19120832 27.87197356 -5 30 C-4.43617776 23.00634512 -3.37639601 16.23899157 -1.9375 9.375 C-1.75123047 8.46621094 -1.56496094 7.55742187 -1.37304688 6.62109375 C-0.91982704 4.4130997 -0.46210307 2.20614876 0 0 Z " fill="#51B1E0" transform="translate(341,252)"/>
<path d="M0 0 C15.84 0.495 15.84 0.495 32 1 C32 1.66 32 2.32 32 3 C22.43 3.33 12.86 3.66 3 4 C3 3.34 3 2.68 3 2 C2.01 1.67 1.02 1.34 0 1 C0 0.67 0 0.34 0 0 Z " fill="#152633" transform="translate(121,289)"/>
<path d="M0 0 C10.23 0 20.46 0 31 0 C31 0.99 31 1.98 31 3 C27.06690266 2.90636389 23.13435915 2.80024855 19.2019043 2.68261719 C17.2070464 2.62555908 15.2119146 2.57835558 13.21679688 2.53125 C11.96318359 2.49257812 10.70957031 2.45390625 9.41796875 2.4140625 C8.26063232 2.3826416 7.1032959 2.3512207 5.91088867 2.31884766 C3 2 3 2 0 0 Z " fill="#43BEE1" transform="translate(318,213)"/>
<path d="M0 0 C4.29 0 8.58 0 13 0 C12.67 0.99 12.34 1.98 12 3 C8.04 3 4.08 3 0 3 C0 7.95 0 12.9 0 18 C-0.99 18 -1.98 18 -3 18 C-3 17.01 -3 16.02 -3 15 C-2.34 15 -1.68 15 -1 15 C-1.01160156 14.08476563 -1.02320313 13.16953125 -1.03515625 12.2265625 C-1.04417969 11.03804687 -1.05320312 9.84953125 -1.0625 8.625 C-1.07410156 7.44164063 -1.08570313 6.25828125 -1.09765625 5.0390625 C-1 2 -1 2 0 0 Z " fill="#17394C" transform="translate(271,94)"/>
<path d="M0 0 C7.00004889 0.28688725 11.91026866 1.50404312 18 5 C17.67 5.99 17.34 6.98 17 8 C14.13275314 7.42655063 13.1385485 7.1385485 11 5 C8.11282395 4.3162387 8.11282395 4.3162387 4.875 3.875 C3.77929688 3.70742187 2.68359375 3.53984375 1.5546875 3.3671875 C0.71164062 3.24601562 -0.13140625 3.12484375 -1 3 C-0.67 2.01 -0.34 1.02 0 0 Z " fill="#112633" transform="translate(286,95)"/>
<path d="M0 0 C1.859375 0.23828125 1.859375 0.23828125 4 1 C7.10122235 5.54654511 8.56310544 10.50972199 8 16 C5.20127563 13.47211993 3.54226981 11.79588866 3 8 C2.34 8 1.68 8 1 8 C-0.35439668 5.29120665 -0.06501451 2.99066732 0 0 Z " fill="#4C4E8C" transform="translate(256,202)"/>
<path d="M0 0 C0.88026855 -0.0033284 1.76053711 -0.0066568 2.66748047 -0.01008606 C4.53026811 -0.01515292 6.39306485 -0.01749446 8.25585938 -0.01733398 C11.11343226 -0.01952239 13.97062037 -0.03768578 16.828125 -0.05664062 C18.63541534 -0.05957415 20.44270752 -0.06155922 22.25 -0.0625 C23.53753174 -0.07327827 23.53753174 -0.07327827 24.85107422 -0.08427429 C30.89617421 -0.06085704 30.89617421 -0.06085704 33.125 2.16796875 C27.34123818 2.3602415 21.55727738 2.53896302 15.77270508 2.70507812 C13.80449162 2.7635158 11.8363849 2.82567051 9.8684082 2.89160156 C7.04137605 2.98566969 4.21423091 3.06641059 1.38671875 3.14453125 C0.50537766 3.1767276 -0.37596344 3.20892395 -1.28401184 3.24209595 C-2.10463608 3.26226776 -2.92526031 3.28243958 -3.77075195 3.30322266 C-4.49245071 3.32542877 -5.21414948 3.34763489 -5.9577179 3.37051392 C-7.875 3.16796875 -7.875 3.16796875 -10.875 1.16796875 C-7.50860724 -0.51522763 -3.70259311 0.00480027 0 0 Z " fill="#50587E" transform="translate(203.875,185.83203125)"/>
<path d="M0 0 C0.76695694 0.02361099 1.53391388 0.04722198 2.32411194 0.07154846 C4.74884858 0.14748819 7.17320787 0.23180725 9.59765625 0.31640625 C11.2519353 0.36969694 12.90623219 0.42243672 14.56054688 0.47460938 C18.59398424 0.60300758 22.62710525 0.73891605 26.66015625 0.87890625 C26.66015625 1.20890625 26.66015625 1.53890625 26.66015625 1.87890625 C12.59140338 2.58910772 -1.29721225 3.25771448 -15.33984375 1.87890625 C-15.33984375 1.54890625 -15.33984375 1.21890625 -15.33984375 0.87890625 C-10.13514428 -0.00795304 -5.26808649 -0.19524631 0 0 Z " fill="#182A33" transform="translate(157.33984375,322.12109375)"/>
<path d="M0 0 C1 3 1 3 0.328125 5.0078125 C-0.02765625 5.70648438 -0.3834375 6.40515625 -0.75 7.125 C-1.26820313 8.18074219 -1.26820313 8.18074219 -1.796875 9.2578125 C-3 11 -3 11 -6 12 C-6.33 10.02 -6.66 8.04 -7 6 C-6.01 5.34 -5.02 4.68 -4 4 C-4.66 3.67 -5.32 3.34 -6 3 C-4.02 2.01 -2.04 1.02 0 0 Z " fill="#503777" transform="translate(263,231)"/>
<path d="M0 0 C1.65 0 3.3 0 5 0 C5 1.98 5 3.96 5 6 C4.01 6.33 3.02 6.66 2 7 C1.67 13.27 1.34 19.54 1 26 C0.67 26 0.34 26 0 26 C0 17.42 0 8.84 0 0 Z " fill="#4096C2" transform="translate(43,105)"/>
<path d="M0 0 C2 1 2 1 3 3 C2.34 3.66 1.68 4.32 1 5 C1.33 5.99 1.66 6.98 2 8 C2.03954234 10.33299825 2.04401732 12.66708189 2 15 C0.02 15 -1.96 15 -4 15 C-3.34 14.67 -2.68 14.34 -2 14 C-2 9.71 -2 5.42 -2 1 C-1.34 0.67 -0.68 0.34 0 0 Z " fill="#3C7AAD" transform="translate(45,139)"/>
<path d="M0 0 C0.66 0 1.32 0 2 0 C2.08107583 1.93681161 2.13922475 3.8745934 2.1875 5.8125 C2.22230469 6.89144531 2.25710938 7.97039062 2.29296875 9.08203125 C2 12 2 12 0.48828125 13.88671875 C-0.00285156 14.25410156 -0.49398438 14.62148437 -1 15 C-2.51708428 4.44191344 -2.51708428 4.44191344 0 0 Z " fill="#3EA4BB" transform="translate(270,82)"/>
<path d="M0 0 C0.66 0 1.32 0 2 0 C1.67 1.65 1.34 3.3 1 5 C-4.28 5 -9.56 5 -15 5 C-15 4.34 -15 3.68 -15 3 C-14.00097656 2.95101562 -13.00195312 2.90203125 -11.97265625 2.8515625 C-10.68230469 2.77679688 -9.39195312 2.70203125 -8.0625 2.625 C-6.77472656 2.55539063 -5.48695313 2.48578125 -4.16015625 2.4140625 C-3.11730469 2.27742187 -2.07445312 2.14078125 -1 2 C-0.67 1.34 -0.34 0.68 0 0 Z " fill="#5AADCE" transform="translate(435,246)"/>
<path d="M0 0 C0.66 0 1.32 0 2 0 C2 1.65 2 3.3 2 5 C-7.57 5 -17.14 5 -27 5 C-27 4.67 -27 4.34 -27 4 C-18.42 4 -9.84 4 -1 4 C-0.67 2.68 -0.34 1.36 0 0 Z " fill="#132532" transform="translate(325,188)"/>
<path d="M0 0 C5.16298073 4.05662772 7.34916803 10.3478107 8.47265625 16.65234375 C8.70931659 18.76228736 8.86330519 20.88123039 9 23 C5.62952778 19.62952778 5.756371 14.77239819 4.9765625 10.1875 C4.33429256 6.90794469 4.33429256 6.90794469 1.8984375 5.5625 C1.27195312 5.376875 0.64546875 5.19125 0 5 C0 3.35 0 1.7 0 0 Z " fill="#48AFC5" transform="translate(262,58)"/>
<path d="M0 0 C0.99 0.33 1.98 0.66 3 1 C2.875 2.75 2.875 2.75 2 5 C-1.66693966 7.93355173 -3.23130534 9 -8 9 C-8 8.34 -8 7.68 -8 7 C-6.20963542 6.05598958 -4.41927083 5.11197917 -2.62890625 4.16796875 C-0.67732013 3.00980201 -0.67732013 3.00980201 0 0 Z " fill="#0F2634" transform="translate(308,310)"/>
<path d="M0 0 C1.65 0 3.3 0 5 0 C5 0.66 5 1.32 5 2 C4.34 2 3.68 2 3 2 C3.99 4.97 4.98 7.94 6 11 C3 10 3 10 1.3125 7.75 C-0.06511203 4.8635748 -0.26985151 3.14826764 0 0 Z " fill="#132433" transform="translate(98,290)"/>
<path d="M0 0 C0.33 0.99 0.66 1.98 1 3 C-0.14453125 5.2265625 -0.14453125 5.2265625 -1.8125 7.625 C-2.35519531 8.42164063 -2.89789063 9.21828125 -3.45703125 10.0390625 C-5 12 -5 12 -7 13 C-7.75 11.25 -7.75 11.25 -8 9 C-6.0625 6.875 -6.0625 6.875 -4 5 C-4 4.34 -4 3.68 -4 3 C-3.01 3 -2.02 3 -1 3 C-0.67 2.01 -0.34 1.02 0 0 Z " fill="#507FA1" transform="translate(239,137)"/>
<path d="M0 0 C0.33 0 0.66 0 1 0 C0.37727768 7.4071181 -0.70487966 14.68194135 -2 22 C-2.33 22 -2.66 22 -3 22 C-3.33 17.38 -3.66 12.76 -4 8 C-3.34 8 -2.68 8 -2 8 C-1.34 5.36 -0.68 2.72 0 0 Z " fill="#4AA9C8" transform="translate(440,224)"/>
<path d="M0 0 C0.33 0 0.66 0 1 0 C1 3.96 1 7.92 1 12 C0.01 12 -0.98 12 -2 12 C-3.32 9.03 -4.64 6.06 -6 3 C-4 3 -4 3 -2.375 4.5 C-1.92125 4.995 -1.4675 5.49 -1 6 C-0.67 4.02 -0.34 2.04 0 0 Z " fill="#3087A4" transform="translate(269,97)"/>
<path d="M0 0 C2.00720923 0.28674418 4.0085944 0.61866701 6 1 C6 1.99 6 2.98 6 4 C7.98 4.66 9.96 5.32 12 6 C11.67 6.66 11.34 7.32 11 8 C5.47371099 6.80805531 2.82180842 5.4008703 -1 1 C-0.67 0.67 -0.34 0.34 0 0 Z " fill="#112532" transform="translate(117,314)"/>
<path d="M0 0 C1.65 0 3.3 0 5 0 C5 0.99 5 1.98 5 3 C5.99 3.33 6.98 3.66 8 4 C9.35827971 5.64639965 10.69254251 7.31295807 12 9 C12.66 9.33 13.32 9.66 14 10 C13.67 10.99 13.34 11.98 13 13 C8.66666667 8.66666667 4.33333333 4.33333333 0 0 Z " fill="#51AAC1" transform="translate(247,83)"/>
<path d="M0 0 C0.33 0 0.66 0 1 0 C1.07347656 1.04800781 1.07347656 1.04800781 1.1484375 2.1171875 C1.22320312 3.02726562 1.29796875 3.93734375 1.375 4.875 C1.44460938 5.77992188 1.51421875 6.68484375 1.5859375 7.6171875 C1.79568132 10.17941903 1.79568132 10.17941903 4 12 C3.38125 12.12375 2.7625 12.2475 2.125 12.375 C-0.19120832 12.87197356 -0.19120832 12.87197356 -2 15 C-1.03644647 4.44191344 -1.03644647 4.44191344 0 0 Z " fill="#55A8DA" transform="translate(338,267)"/>
<path d="M0 0 C0 2.31 0 4.62 0 7 C-0.99 6.67 -1.98 6.34 -3 6 C-3 5.01 -3 4.02 -3 3 C-4.32 2.67 -5.64 2.34 -7 2 C-7 1.34 -7 0.68 -7 0 C-4.3333581 -1.33332095 -2.83319697 -0.67102033 0 0 Z " fill="#563180" transform="translate(55,241)"/>
<path d="M0 0 C7.75 0.875 7.75 0.875 10 2 C10 2.66 10 3.32 10 4 C6.7 4 3.4 4 0 4 C0 2.68 0 1.36 0 0 Z " fill="#49598E" transform="translate(235,188)"/>
<path d="M0 0 C0.66 0.33 1.32 0.66 2 1 C1.67 3.97 1.34 6.94 1 10 C-0.32 9.67 -1.64 9.34 -3 9 C-2.25 2.25 -2.25 2.25 0 0 Z " fill="#41A7E0" transform="translate(342,268)"/>
<path d="M0 0 C3.37503669 1.1858237 5.64722731 2.27573689 8 5 C7.67 5.99 7.34 6.98 7 8 C3.83282717 6.41641358 2.26731682 5.54736301 0.6875 2.3125 C0.460625 1.549375 0.23375 0.78625 0 0 Z " fill="#4D5386" transform="translate(248,193)"/>
<path d="M0 0 C1.0326802 2.78823655 1.04509293 3.8677274 0.0625 6.75 C-0.288125 7.4925 -0.63875 8.235 -1 9 C-0.01 9.33 0.98 9.66 2 10 C1.67 10.66 1.34 11.32 1 12 C-0.32 11.67 -1.64 11.34 -3 11 C-2.53199289 6.94393835 -2.12046792 3.53411321 0 0 Z " fill="#49B4BF" transform="translate(47,62)"/>
<path d="M0 0 C3.37462715 0.54723683 5.08235 1.0549 8 3 C4.7 3 1.4 3 -2 3 C-2.33 3.66 -2.66 4.32 -3 5 C-3.66 4.67 -4.32 4.34 -5 4 C-5 3.34 -5 2.68 -5 2 C-3.35 1.67 -1.7 1.34 0 1 C0 0.67 0 0.34 0 0 Z " fill="#39C9E7" transform="translate(313,212)"/>
<path d="M0 0 C1.32 0.33 2.64 0.66 4 1 C3.67 1.99 3.34 2.98 3 4 C0.69 4.33 -1.62 4.66 -4 5 C-4 4.01 -4 3.02 -4 2 C-2.68 2 -1.36 2 0 2 C0 1.34 0 0.68 0 0 Z " fill="#57297F" transform="translate(244,248)"/>
<path d="M0 0 C0 0.99 0 1.98 0 3 C-2.8125 4.5625 -2.8125 4.5625 -6 6 C-6.99 5.67 -7.98 5.34 -9 5 C-6.45523312 2.20075644 -3.92372883 0 0 0 Z " fill="#40C5D1" transform="translate(70,43)"/>
<path d="M0 0 C0.80050781 0.12761719 1.60101563 0.25523437 2.42578125 0.38671875 C3.23402344 0.50660156 4.04226562 0.62648438 4.875 0.75 C5.48988281 0.85699219 6.10476562 0.96398437 6.73828125 1.07421875 C3.83871515 2.73297954 1.82192916 3.31034035 -1.51171875 3.19921875 C-3.36796875 3.13734375 -3.36796875 3.13734375 -5.26171875 3.07421875 C-3.53640014 0.90221572 -2.83921072 0.09316926 0 0 Z " fill="#4F2C69" transform="translate(232.26171875,255.92578125)"/>
<path d="M0 0 C1.65 0 3.3 0 5 0 C5 1.98 5 3.96 5 6 C3.68 6 2.36 6 1 6 C0.67 4.02 0.34 2.04 0 0 Z " fill="#3097BF" transform="translate(43,105)"/>
<path d="M0 0 C0.33 0 0.66 0 1 0 C1 5.28 1 10.56 1 16 C0.01 16 -0.98 16 -2 16 C-2 15.01 -2 14.02 -2 13 C-1.34 13 -0.68 13 0 13 C0 8.71 0 4.42 0 0 Z " fill="#0C4660" transform="translate(270,96)"/>
<path d="M0 0 C0.66 0 1.32 0 2 0 C2.0825 0.78375 2.165 1.5675 2.25 2.375 C2.72806339 5.14749104 2.72806339 5.14749104 5.0625 6.3125 C5.701875 6.539375 6.34125 6.76625 7 7 C4.125 7.125 4.125 7.125 1 7 C0.34 6.34 -0.32 5.68 -1 5 C-0.625 2.375 -0.625 2.375 0 0 Z " fill="#52AEDE" transform="translate(335,284)"/>
<path d="M0 0 C2.875 -0.1875 2.875 -0.1875 6 0 C8 3 8 3 8 6 C6.68 6.33 5.36 6.66 4 7 C4.33 5.35 4.66 3.7 5 2 C3.35 1.67 1.7 1.34 0 1 C0 0.67 0 0.34 0 0 Z " fill="#0F283A" transform="translate(309,272)"/>
<path d="M0 0 C0.66 0.33 1.32 0.66 2 1 C2 3.31 2 5.62 2 8 C1.01 8.33 0.02 8.66 -1 9 C-1.09765625 2.84765625 -1.09765625 2.84765625 -1 1 C-0.67 0.67 -0.34 0.34 0 0 Z " fill="#42ACE2" transform="translate(342,257)"/>
<path d="M0 0 C3 3.625 3 3.625 3 7 C3.99 7.33 4.98 7.66 6 8 C5.67 8.99 5.34 9.98 5 11 C2.27042661 8.64264116 1.11106604 6.41866474 0 3 C0 2.01 0 1.02 0 0 Z " fill="#4C366A" transform="translate(43,233)"/>
<path d="M0 0 C5.5952381 0.5952381 5.5952381 0.5952381 8 3 C5.75 3.6875 5.75 3.6875 3 4 C0.6875 2.5625 0.6875 2.5625 -1 1 C-0.67 0.67 -0.34 0.34 0 0 Z " fill="#26CADD" transform="translate(240,44)"/>
<path d="M0 0 C-1.98 1.32 -3.96 2.64 -6 4 C-6.66 3.34 -7.32 2.68 -8 2 C-7.34 2 -6.68 2 -6 2 C-6 1.34 -6 0.68 -6 0 C-3.50907189 -1.24546405 -2.58919267 -0.7767578 0 0 Z " fill="#557B9F" transform="translate(231,151)"/>
<path d="M0 0 C2 2 2 2 2.125 5.125 C2.08375 6.07375 2.0425 7.0225 2 8 C0.68 6.68 -0.64 5.36 -2 4 C-1.34 2.68 -0.68 1.36 0 0 Z " fill="#534F82" transform="translate(262,210)"/>
<path d="M0 0 C0.66 0 1.32 0 2 0 C3.60355101 3.50776784 4.22036864 6.14354879 4 10 C0 4 0 4 0 0 Z " fill="#2FB9D5" transform="translate(264,65)"/>
</svg>
